HIERARCHY
ROOT SpineBase
{
  OFFSET 0.000000 0.000000 0.000000
  CHANNELS 6 Xposition Yposition Zposition Zrotation Xrotation Yrotation
  JOINT SpineMid
  {
    OFFSET 0.000000 31.017356 0.000000
    CHANNELS 3 Zrotation Xrotation Yrotation
    JOINT SpineShoulder
    {
      OFFSET -0.016630 23.051537 -0.834986
      CHANNELS 3 Zrotation Xrotation Yrotation
      JOINT Neck
      {
        OFFSET -0.011103 7.634014 -0.621122
        CHANNELS 3 Zrotation Xrotation Yrotation
        JOINT Head
        {
          OFFSET 3.597025 13.667496 0.832151
          CHANNELS 3 Zrotation Xrotation Yrotation
          End Site
          {
            OFFSET 0 0 0
          }
        }
      }
      JOINT ShoulderLeft
      {
        OFFSET -15.518899 -3.720464 -2.887285
        CHANNELS 3 Zrotation Xrotation Yrotation
        JOINT ElbowLeft
        {
          OFFSET -4.935671 -22.664914 -1.822470
          CHANNELS 3 Zrotation Xrotation Yrotation
          JOINT WristLeft
          {
            OFFSET 4.233898 -19.075978 -11.065524
            CHANNELS 3 Zrotation Xrotation Yrotation
            JOINT HandLeft
            {
              OFFSET 3.126783 -4.795427 -4.465235
              CHANNELS 3 Zrotation Xrotation Yrotation
              JOINT HandTipLeft
              {
                OFFSET 2.525299 -5.626696 -1.372218
                CHANNELS 3 Zrotation Xrotation Yrotation
                End Site
                {
                  OFFSET 0 0 0
                }
              }
              JOINT ThumbLeft
              {
                OFFSET 2.931330 -1.539667 -1.351577
                CHANNELS 3 Zrotation Xrotation Yrotation
                End Site
                {
                  OFFSET 0 0 0
                }
              }
            }
          }
        }
      }
      JOINT ShoulderRight
      {
        OFFSET 16.316786 -4.927305 0.624851
        CHANNELS 3 Zrotation Xrotation Yrotation
        JOINT ElbowRight
        {
          OFFSET 5.167220 -22.222854 3.745787
          CHANNELS 3 Zrotation Xrotation Yrotation
          JOINT WristRight
          {
            OFFSET -3.833316 -15.829100 -15.107754
            CHANNELS 3 Zrotation Xrotation Yrotation
            JOINT HandRight
            {
              OFFSET -4.328599 -4.300848 -3.266048
              CHANNELS 3 Zrotation Xrotation Yrotation
              JOINT HandTipRight
              {
                OFFSET -1.642143 -4.772950 -4.992905
                CHANNELS 3 Zrotation Xrotation Yrotation
                End Site
                {
                  OFFSET 0 0 0
                }
              }
              JOINT ThumbRight
              {
                OFFSET 3.798546 2.008070 -6.413859
                CHANNELS 3 Zrotation Xrotation Yrotation
                End Site
                {
                  OFFSET 0 0 0
                }
              }
            }
          }
        }
      }
    }
  }
  JOINT HipLeft
  {
    OFFSET -8.339572 0.762893 -3.837064
    CHANNELS 3 Zrotation Xrotation Yrotation
    JOINT KneeLeft
    {
      OFFSET -2.025682 -29.918357 11.014643
      CHANNELS 3 Zrotation Xrotation Yrotation
      JOINT AnkleLeft
      {
        OFFSET 0.048968 -21.821299 5.090428
        CHANNELS 3 Zrotation Xrotation Yrotation
        JOINT FootLeft
        {
          OFFSET -0.031843 -4.698145 -11.732926
          CHANNELS 3 Zrotation Xrotation Yrotation
          End Site
          {
            OFFSET 0 0 0
          }
        }
      }
    }
  }
  JOINT HipRight
  {
    OFFSET 7.389176 0.771546 -3.143585
    CHANNELS 3 Zrotation Xrotation Yrotation
    JOINT KneeRight
    {
      OFFSET -0.188402 -30.536576 9.816107
      CHANNELS 3 Zrotation Xrotation Yrotation
      JOINT AnkleRight
      {
        OFFSET 0.678491 -21.681809 5.845526
        CHANNELS 3 Zrotation Xrotation Yrotation
        JOINT FootRight
        {
          OFFSET 0.563887 -4.356346 -13.005575
          CHANNELS 3 Zrotation Xrotation Yrotation
          End Site
          {
            OFFSET 0 0 0
          }
        }
      }
    }
  }
}
MOTION
Frames: 15
Frame Time: 0.033333
52.792960 59.542258 346.692204 -2.653913 -6.249771 -30.614688 -0.254918 0.235413 30.379859 0.092213 0.193304 -0.120114 -3.384825 11.034289 -0.061499 0.000000 0.000000 0.000000 11.460068 68.413213 -21.062875 25.686263 -6.460498 24.360710 5.364590 0.829435 5.586723 8.568880 21.684792 14.477229 0.000000 0.000000 0.000000 0.000000 0.000000 0.000000 17.013653 -20.944702 -1.669526 90.204261 -0.916189 -149.760387 -17.823541 -16.535383 -65.710918 106.085612 56.766528 150.187213 0.000000 0.000000 0.000000 0.000000 0.000000 0.000000 -18.169229 10.576893 27.491885 18.203785 -23.954625 8.816956 7.587078 8.901079 -28.970029 0.000000 0.000000 0.000000 -2.947794 17.188266 32.085839 -10.414911 -13.602891 -4.616579 12.973657 -2.378473 -22.969872 0.000000 0.000000 0.000000
53.055661 59.405946 346.567590 -2.479456 -6.231533 -30.565422 -0.226459 0.189128 30.344924 0.101494 0.157777 -0.113171 -3.397473 11.154334 -0.106581 0.000000 0.000000 0.000000 11.267009 68.206862 -20.971392 25.860311 -5.875533 24.136472 5.224055 0.121071 5.504203 7.784070 19.769958 14.513969 0.000000 0.000000 0.000000 0.000000 0.000000 0.000000 16.596455 -19.393560 -1.608458 99.326407 4.246065 -154.774187 -58.900824 13.684473 -98.974886 -160.618180 25.284409 80.855082 0.000000 0.000000 0.000000 0.000000 0.000000 0.000000 -18.595767 10.562094 27.387284 18.442297 -24.511900 8.958229 7.572020 9.558915 -28.466342 0.000000 0.000000 0.000000 -3.332377 17.018169 32.018021 -10.524755 -14.047607 -4.724888 13.198322 -1.746371 -22.395891 0.000000 0.000000 0.000000
53.170378 59.290901 346.460265 -2.416531 -6.168432 -30.126363 -0.164462 0.137941 29.910440 0.132555 0.126733 -0.109150 -3.262905 11.598727 -0.243918 0.000000 0.000000 0.000000 7.685478 67.169672 -17.982187 26.477447 -3.849907 23.619322 4.562492 -2.286055 5.534310 6.986105 18.331420 14.281827 0.000000 0.000000 0.000000 0.000000 0.000000 0.000000 15.908455 -17.206963 -1.551221 107.962232 8.645786 -158.975977 -68.377992 21.101650 -100.009038 -151.266959 4.390703 79.859452 0.000000 0.000000 0.000000 0.000000 0.000000 0.000000 -18.579253 10.753007 26.971781 18.271997 -25.006824 8.902927 7.603885 10.206410 -27.828081 0.000000 0.000000 0.000000 -3.190536 16.853209 31.544582 -10.883027 -14.156903 -4.898336 13.422553 -1.223767 -21.678774 0.000000 0.000000 0.000000
53.282359 59.347889 346.315393 -2.316952 -6.099309 -29.372357 -0.138717 0.074644 29.165266 0.153138 0.081747 -0.105660 -3.218820 11.779308 -0.304882 0.000000 0.000000 0.000000 5.056350 66.502936 -15.888121 28.819221 -2.466646 23.298792 2.042449 -2.777734 5.826609 7.823224 16.629640 13.883830 0.000000 0.000000 0.000000 0.000000 0.000000 0.000000 16.122511 -14.589070 -1.210421 114.686579 12.861155 -162.282110 -66.750732 18.317713 -97.174867 -151.092034 -1.094028 80.929273 0.000000 0.000000 0.000000 0.000000 0.000000 0.000000 -18.435515 10.849857 26.220428 18.020048 -24.880892 8.764258 7.466694 10.615774 -26.653385 0.000000 0.000000 0.000000 -3.030097 16.524346 30.714977 -10.871133 -14.078643 -4.886311 13.310919 -0.664208 -20.526181 0.000000 0.000000 0.000000
53.277875 59.604102 346.183546 -2.324884 -6.010616 -28.074520 -0.087317 0.033137 27.866773 0.185402 0.046204 -0.104755 -2.564735 11.971729 -0.494495 0.000000 0.000000 0.000000 1.811412 64.780641 -13.079064 31.228570 0.182788 22.215879 -0.481696 -4.090533 6.066877 8.278393 17.589342 13.662347 0.000000 0.000000 0.000000 0.000000 0.000000 0.000000 16.081557 -12.199899 -0.963312 120.143126 16.713738 -164.753200 -56.184276 10.913168 -92.477045 -155.836303 4.886330 81.567671 0.000000 0.000000 0.000000 0.000000 0.000000 0.000000 -17.693867 11.138184 25.023358 17.149823 -24.226575 8.312154 7.204148 10.816961 -24.732035 0.000000 0.000000 0.000000 -2.567095 16.331301 29.329311 -10.860785 -14.052906 -4.874820 12.941112 0.064123 -18.729732 0.000000 0.000000 0.000000
53.174282 60.053604 346.095363 -2.416451 -5.946017 -26.445052 -0.021928 0.013452 26.228793 0.227383 0.017786 -0.106014 -1.313168 12.151452 -0.800848 0.000000 0.000000 0.000000 -1.820557 62.286676 -9.928847 33.908428 3.556903 20.541556 -3.105471 -5.865858 6.270182 5.155543 19.387110 13.740561 0.000000 0.000000 0.000000 0.000000 0.000000 0.000000 14.656361 -11.204149 -1.163974 136.845593 18.206944 -178.197732 -47.234713 3.302339 -88.466702 -154.140414 -0.500181 83.083114 0.000000 0.000000 0.000000 0.000000 0.000000 0.000000 -16.530049 11.576414 23.570867 15.811807 -23.133695 7.640209 6.891194 10.692148 -22.453289 0.000000 0.000000 0.000000 -1.911999 16.289579 27.613096 -10.783976 -13.983264 -4.825943 12.335588 0.717714 -16.658313 0.000000 0.000000 0.000000
53.012291 60.515007 346.057060 -2.592918 -5.888658 -23.442882 0.067771 0.019548 23.210453 0.284899 0.011460 -0.108505 0.425482 12.272440 -1.205564 0.000000 0.000000 0.000000 -5.017418 59.446997 -7.197372 37.150161 7.098341 18.422015 -7.001105 -7.167608 6.795582 1.922526 21.255986 13.778136 0.000000 0.000000 0.000000 0.000000 0.000000 0.000000 18.332316 -9.391258 -0.234415 134.485280 22.112592 -177.438544 -60.824040 14.325851 -91.105928 -143.018527 -17.662045 89.095670 0.000000 0.000000 0.000000 0.000000 0.000000 0.000000 -14.891090 12.575788 20.815725 14.261570 -22.109988 6.918651 6.438700 10.521726 -19.753156 0.000000 0.000000 0.000000 -0.704108 15.946458 24.421033 -10.501602 -13.351591 -4.625199 11.503003 1.172909 -14.179606 0.000000 0.000000 0.000000
52.827728 61.040524 346.084975 -2.805180 -5.879244 -20.100114 0.150623 0.047084 19.847996 0.337985 0.021807 -0.112220 2.402353 12.379673 -1.656540 0.000000 0.000000 0.000000 -6.350882 57.165200 -5.905595 38.501609 9.457921 16.685469 -8.965939 -8.681303 6.948535 0.684472 21.859244 13.727541 0.000000 0.000000 0.000000 0.000000 0.000000 0.000000 26.523282 -6.127283 1.401045 122.651223 26.289053 -171.340072 -64.772715 16.382525 -89.396049 -143.306937 -18.512950 88.372586 0.000000 0.000000 0.000000 0.000000 0.000000 0.000000 -13.020659 13.644774 17.703885 12.540855 -20.893892 6.138245 5.885551 10.102289 -16.691890 0.000000 0.000000 0.000000 0.572975 15.569565 20.883257 -10.208170 -12.596144 -4.413476 10.541038 1.494650 -11.368550 0.000000 0.000000 0.000000
52.650969 61.565594 346.167075 -3.028615 -5.906552 -16.595651 0.220359 0.090607 16.322726 0.374643 0.044390 -0.117018 4.467058 12.448399 -2.115165 0.000000 0.000000 0.000000 -8.334950 54.775867 -4.250630 39.501967 11.143180 15.268450 -8.645617 -8.983693 6.815217 2.219739 21.788134 13.562276 0.000000 0.000000 0.000000 0.000000 0.000000 0.000000 39.975307 -0.028412 3.029976 100.263050 30.916297 -158.603891 -59.716619 13.018126 -84.559453 -157.663443 -7.202186 77.960857 0.000000 0.000000 0.000000 0.000000 0.000000 0.000000 -11.031845 14.681990 14.380577 10.918050 -19.750453 5.423613 5.146532 9.644888 -13.450835 0.000000 0.000000 0.000000 1.800808 14.982544 17.173228 -9.731751 -11.597916 -4.106599 9.404639 1.637717 -8.374436 0.000000 0.000000 0.000000
52.513829 62.054659 346.314815 -3.235472 -6.015623 -13.186129 0.273877 0.141539 12.892045 0.408123 0.065155 -0.122202 6.439143 12.620541 -2.574916 0.000000 0.000000 0.000000 -11.039886 52.154981 -2.233037 41.030377 13.233164 13.761925 -9.252914 -9.927749 6.807387 9.726886 22.473699 12.428504 0.000000 0.000000 0.000000 0.000000 0.000000 0.000000 58.226042 10.955865 2.229084 67.960153 32.276063 -138.902912 -36.482589 -5.101792 -70.284854 140.843507 20.398974 62.682032 0.000000 0.000000 0.000000 0.000000 0.000000 0.000000 -9.161147 15.710420 11.091753 9.618105 -18.871778 4.877228 4.287446 9.182767 -10.399383 0.000000 0.000000 0.000000 2.893310 14.394855 13.581807 -9.340255 -10.543474 -3.840214 8.355910 1.597087 -5.509514 0.000000 0.000000 0.000000
52.458203 62.462232 346.487926 -3.372550 -6.144056 -10.316042 0.292261 0.177848 10.006649 0.419836 0.082865 -0.126923 8.119239 12.835347 -2.987779 0.000000 0.000000 0.000000 -13.591481 49.624127 -0.452402 40.562338 14.518036 13.085523 -6.394089 -10.344695 6.308476 14.991827 22.053845 11.746626 0.000000 0.000000 0.000000 0.000000 0.000000 0.000000 79.384630 24.893008 -4.339924 27.480037 25.742342 -112.706234 -26.056470 -7.713828 -57.882949 53.430602 12.658999 56.848486 0.000000 0.000000 0.000000 0.000000 0.000000 0.000000 -7.640743 16.518521 8.273585 8.678900 -18.207847 4.492673 3.403920 8.750908 -7.629031 0.000000 0.000000 0.000000 3.628695 13.825778 10.562485 -8.932941 -9.586968 -3.586783 7.402220 1.448796 -2.879456 0.000000 0.000000 0.000000
52.490616 62.655130 346.700623 -3.408899 -6.315683 -7.755793 0.269564 0.222645 7.439700 0.403175 0.103286 -0.129902 9.256485 13.043738 -3.284032 0.000000 0.000000 0.000000 -16.135934 46.983042 1.192793 40.870726 15.791954 12.243419 -5.640601 -9.955071 6.357973 12.726872 21.210555 11.696120 0.000000 0.000000 0.000000 0.000000 0.000000 0.000000 99.507384 36.387214 -16.522031 -5.530628 11.447958 -94.530311 -16.169436 -7.402646 -46.134847 10.656222 0.726862 43.607853 0.000000 0.000000 0.000000 0.000000 0.000000 0.000000 -6.560939 17.207295 5.703468 8.255317 -17.766907 4.336735 2.360374 8.454973 -4.913744 0.000000 0.000000 0.000000 4.092122 13.226384 7.876977 -8.532109 -8.563397 -3.335939 6.483892 1.201805 -0.251564 0.000000 0.000000 0.000000
52.574662 62.715286 346.918192 -3.363618 -6.499635 -5.647185 0.227062 0.268956 5.331892 0.384279 0.129628 -0.130201 9.786416 12.997855 -3.372238 0.000000 0.000000 0.000000 -18.481714 44.089999 2.589710 39.658882 15.335713 12.015202 0.043524 -4.930630 5.949867 12.627482 16.670007 12.153150 0.000000 0.000000 0.000000 0.000000 0.000000 0.000000 111.630137 44.130893 -28.828542 -22.837064 0.259572 -85.829106 -7.458240 -7.676428 -37.627623 -13.099252 2.317866 31.806060 0.000000 0.000000 0.000000 0.000000 0.000000 0.000000 -5.877837 17.871034 3.558729 8.151845 -17.732289 4.327318 1.420967 8.341369 -2.641156 0.000000 0.000000 0.000000 4.388405 12.845173 5.685085 -8.319641 -7.874534 -3.191800 5.766023 0.991584 1.978716 0.000000 0.000000 0.000000
52.668752 62.626550 347.109988 -3.277889 -6.668837 -3.931655 0.188812 0.315244 3.621406 0.370366 0.152863 -0.128516 9.694015 12.608040 -3.214266 0.000000 0.000000 0.000000 -20.480077 40.646865 3.680622 37.604499 15.191139 11.775043 4.563300 -2.356308 5.309080 12.219950 12.973054 12.015751 0.000000 0.000000 0.000000 0.000000 0.000000 0.000000 117.080592 48.702099 -37.012651 -29.422033 -5.306433 -81.970298 -1.944256 -7.913388 -33.835605 -24.024798 5.264855 27.245431 0.000000 0.000000 0.000000 0.000000 0.000000 0.000000 -5.372953 18.377241 1.803346 8.145951 -17.788894 4.349725 0.521689 8.331943 -0.556765 0.000000 0.000000 0.000000 4.626709 12.603938 3.920300 -8.310776 -7.468078 -3.149821 5.185818 0.900841 4.049388 0.000000 0.000000 0.000000
52.786326 62.418872 347.237446 -3.130180 -6.732553 -2.347694 0.131207 0.320120 2.051087 0.361816 0.171634 -0.124913 9.877904 11.756602 -2.990369 0.000000 0.000000 0.000000 -23.053514 36.012347 4.861734 37.601948 15.936574 10.538034 6.018836 -0.522732 5.176352 7.796487 9.924283 11.149618 0.000000 0.000000 0.000000 0.000000 0.000000 0.000000 113.282912 51.782211 -38.135246 -26.022277 -3.525429 -78.667158 1.530097 -8.307281 -33.864279 -25.792297 4.093828 27.633157 0.000000 0.000000 0.000000 0.000000 0.000000 0.000000 -5.002450 18.600298 0.163948 8.186907 -17.747072 4.373445 -0.279080 8.334518 1.319515 0.000000 0.000000 0.000000 4.737872 12.308123 2.305045 -8.328244 -7.329101 -3.139455 4.708281 1.005300 5.922611 0.000000 0.000000 0.000000
